<?xml version="1.0" standalone="no"?>
<!DOCTYPE svg PUBLIC "-//W3C//DTD SVG 20010904//EN"
 "http://www.w3.org/TR/2001/REC-SVG-20010904/DTD/svg10.dtd">
<svg version="1.0" xmlns="http://www.w3.org/2000/svg"
 width="464.000000pt" height="464.000000pt" viewBox="0 0 464.000000 464.000000"
 preserveAspectRatio="xMidYMid meet">
<metadata>
Created by potrace 1.11, written by Peter Selinger 2001-2013
</metadata>
<g transform="translate(0.000000,464.000000) scale(0.100000,-0.100000)"
fill="#000000" stroke="none">
<path d="M2237 4624 c-1 -1 -49 -5 -107 -9 -57 -3 -107 -8 -110 -10 -3 -1 -27
-6 -55 -9 -27 -4 -68 -11 -90 -16 -22 -5 -55 -11 -72 -15 -18 -3 -85 -21 -150
-41 -799 -242 -1401 -888 -1587 -1704 -9 -36 -18 -83 -22 -104 -3 -21 -7 -47
-9 -57 -20 -103 -28 -463 -13 -599 104 -950 802 -1752 1727 -1985 57 -14 106
-23 109 -20 3 3 0 5 -6 5 -26 0 -142 79 -193 132 -165 171 -191 407 -71 644
47 92 139 190 222 235 14 8 27 17 30 20 9 10 115 35 145 34 125 -6 225 -90
255 -217 14 -56 17 -181 7 -243 -13 -83 -60 -199 -119 -293 -151 -245 -155
-252 -144 -297 12 -49 90 -72 178 -52 78 17 219 126 292 226 82 113 153 274
194 441 l25 105 2 1217 c2 1314 4 1261 -52 1320 -58 61 -147 80 -289 64 l-61
-7 0 98 -1 99 62 22 c33 12 68 24 76 26 14 4 314 107 640 220 69 24 154 54
190 66 36 12 168 58 294 101 125 43 230 79 231 79 2 0 3 -44 3 -98 l1 -99 -77
-43 c-184 -102 -235 -147 -279 -245 -20 -45 -20 -34 -26 -1540 -2 -429 -6
-791 -9 -805 -4 -14 -12 -59 -18 -100 -13 -89 -60 -280 -91 -371 -40 -118
-178 -382 -219 -419 -3 -3 -24 -30 -47 -60 -45 -60 -184 -200 -248 -251 l-40
-32 35 7 c376 68 735 238 1050 496 97 79 278 265 335 345 11 16 25 34 32 40
38 39 166 252 228 380 105 217 188 482 210 675 4 30 9 66 12 80 9 46 11 404 2
475 -17 143 -20 162 -39 252 -10 50 -27 118 -36 150 -10 32 -19 63 -20 68 -7
38 -86 230 -135 330 -202 414 -551 781 -944 995 -33 18 -64 36 -70 40 -5 4
-70 33 -142 64 -188 79 -392 138 -558 161 -22 3 -51 8 -65 10 -66 11 -364 26
-373 19z"/>
</g>
</svg>
