<svg xmlns="http://www.w3.org/2000/svg" width="16" height="16" viewBox="0 0 16 16">
  <g fill="none" fill-rule="evenodd" stroke="#FFFFFF">
    <path d="M8.432,7.9004 C10.108,8.8372 11.1488,10.6116 11.1488,12.5356 L11.1488,15.426 L0.537600001,15.426 L0.527200001,15.426 L0.527200001,12.5356 L0.537600001,12.5356 C0.537600001,10.6076 1.576,8.8372 3.256,7.9004 L2.8584,8.146 C3.324,7.878 3.7424,7.546 4.1096,7.162 L4.0592,7.2124 C4.356,6.9108 4.528,6.5124 4.528,6.0844 C4.528,5.9636 4.5104,5.8308 4.48,5.7132 L4.4864,5.7388 C4.3432,5.2644 4.0936,4.8268 3.7696,4.4588 L4.0192,4.7684 C3.5824,4.3068 3.3392,3.694 3.3392,3.0548 C3.3392,1.6708 4.4592,0.545999999 5.8448,0.545999999 C7.2336,0.545999999 8.36,1.67 8.36,3.0548 C8.36,3.6932 8.1112,4.3108 7.6736,4.7684 L7.9264,4.4588 C7.5952,4.8284 7.352,5.2652 7.2096,5.7388 L7.2128,5.7132 C7.1776,5.8308 7.1672,5.9636 7.1672,6.0844 C7.1672,6.506 7.3392,6.9108 7.6328,7.2124 L7.5824,7.162 C7.9592,7.5604 8.3976,7.9076 8.88,8.1772"/>
    <path d="M15.4192,11.6012 L15.4192,15.43 L11.148,15.43 L11.148,12.5388 L10.524,10.0348 L9.0064,8.2764 L9.9984,7.5436 C10.0768,7.37 10.1176,7.1924 10.1176,7.006 C10.1176,6.9036 10.1,6.8084 10.0792,6.7052 L10.0824,6.73 C9.9768,6.3436 9.7696,5.9972 9.504,5.7012 L9.7032,5.95 C9.3544,5.5764 9.16,5.09 9.16,4.582 C9.16,3.4668 10.06,2.5756 11.1656,2.5756 C12.276,2.5756 13.176,3.4756 13.176,4.582 C13.176,5.0884 12.9808,5.5764 12.6296,5.95 L12.8272,5.7012 C12.5648,5.9972 12.3664,6.3436 12.252,6.73 L12.2568,6.7052 C12.232,6.8084 12.2216,6.9036 12.2216,7.006 C12.2216,7.3412 12.3504,7.6668 12.5944,7.906 L12.5504,7.8604 C12.8408,8.174 13.1784,8.4428 13.552,8.654 L13.2448,8.466 C14.584,9.2132 15.4184,10.63 15.4184,12.1692 L15.4184,14.4812"/>
  </g>
</svg>
