<svg xmlns="http://www.w3.org/2000/svg" width="16" height="16" viewBox="0 0 16 16">
  <g fill="none" fill-rule="evenodd" stroke="#FFFFFF">
    <path d="M11.2483997 7.99119979C11.2483997 6.20399984 9.79959977 4.74959987 8.00599982 4.74959987 6.21559987 4.74959987 4.76279991 6.20319984 4.76279991 7.99119979 4.76279991 9.78239974 6.21719987 11.2343997 8.00599982 11.2343997 9.79879977 11.2351997 11.2483997 9.78239974 11.2483997 7.99119979M6.74839985 3.09119992L6.74839985.551199985M6.74839985.551199985L9.26519979.551199985M9.26519979.551199985L9.26519979 3.09119992M6.74839985 3.09119992L6.74839985.551199985M6.74839985.551199985L9.26519979.551199985M9.26519979.551199985L9.26519979 3.09119992M6.74839985 3.09119992L6.74839985.551199985M9.26519979.551199985L9.26519979 3.09119992"/>
    <path d="M3.13239995,9.35439975 C3.00839995,8.91119976 2.94759995,8.45359978 2.94759995,7.99439979 C2.94759995,7.5335998 3.00839995,7.07599981 3.13239995,6.63279982 L0.934000007,5.36319986 L2.19479997,3.18399992 L4.39479992,4.45359988 C5.0363999,3.7959999 5.85559988,3.32399991 6.74839985,3.09599992 L6.74839985,0.552799985 L9.26839979,0.552799985 L9.26839979,3.09599992 C10.1691998,3.32399991 10.9803997,3.7959999 11.6259997,4.45359988 L13.8275997,3.18399992 L15.0891996,5.36319986 L12.8843997,6.63279982 C13.0091997,7.07599981 13.0755997,7.5335998 13.0755997,7.99439979 C13.0755997,8.45039978 13.0091997,8.91039976 12.8843997,9.35439975 L15.0891996,10.6255997 L13.8275997,12.8055997 L11.6259997,11.5335997 C10.9795997,12.1935997 10.1691998,12.6647997 9.26839979,12.8959997 L9.26839979,15.4351996 L6.74839985,15.4351996 L6.74839985,12.8959997 C5.85559988,12.6647997 5.0355999,12.1943997 4.39479992,11.5335997 L2.19479997,12.8055997 L0.934000007,10.6255997 L3.13239995,9.35439975 Z"/>
  </g>
</svg>
