<svg xmlns="http://www.w3.org/2000/svg" width="16" height="16" viewBox="0 0 16 16">
  <g fill="none" fill-rule="evenodd" stroke="#FFFFFF">
    <path d="M11.5008 4.2628L15.6672 4.2628M13.5832 2.1836L13.5832 6.3492M8.6784 7.9004C10.356 8.8372 11.396 10.6116 11.396 12.5356L11.396 15.426.7864 15.426.7728 15.426.7728 12.5356.7864 12.5356C.7864 10.6076 1.8264 8.8372 3.5016 7.9004L3.1048 8.146C3.5736 7.878 3.9944 7.546 4.36 7.162L4.3048 7.2124C4.6064 6.9108 4.7736 6.5124 4.7736 6.0844 4.7736 5.9636 4.76 5.8308 4.7304 5.7132L4.7368 5.7388C4.592 5.2644 4.3432 4.8268 4.016 4.4588L4.2656 4.7684C3.8296 4.3068 3.5856 3.694 3.5856 3.0548 3.5856 1.6708 4.7064.545999999 6.0912.545999999 7.4784.545999999 8.6072 1.67 8.6072 3.0548 8.6072 3.6932 8.3576 4.3108 7.924 4.7684L8.1752 4.4588C7.8408 4.8284 7.5976 5.2652 7.4552 5.7388L7.4632 5.7132C7.4288 5.8308 7.4184 5.9636 7.4184 6.0844 7.4184 6.506 7.5864 6.9108 7.88 7.2124L7.832 7.162C8.208 7.5604 8.6448 7.9076 9.1304 8.1772"/>
  </g>
</svg>
