<svg xmlns="http://www.w3.org/2000/svg" width="57" height="59" viewBox="0 0 57 59">
  <g fill="none" fill-rule="evenodd">
    <ellipse cx="28.275" cy="30.186" fill="#FFFFFF" rx="27.618" ry="28.814"/>
    <polyline fill="#000000" points="45.893 9.303 45.915 9.233 45.915 6.742 46.044 6.695 47.393 7.922 48.665 9.235 49.855 10.631 50.958 12.103 51.97 13.644 52.887 15.25 53.704 16.914 54.42 18.629 55.03 20.388 55.533 22.183 55.926 24.009 56.208 25.857 56.378 27.72 56.434 29.59 56.377 31.467 56.207 33.337 55.923 35.191 55.527 37.022 55.021 38.824 54.406 40.588 53.686 42.307 52.863 43.976 51.94 45.585 50.921 47.13 49.811 48.605 48.613 50.002 47.334 51.316 45.976 52.543 44.548 53.676 43.053 54.712 41.499 55.647 39.89 56.476 38.235 57.196 36.54 57.805 34.811 58.299 33.055 58.677 34.14 57.751 35.163 56.75 36.118 55.678 37.001 54.541 37.808 53.344 38.476 52.161 39.068 50.937 39.584 49.674 40.019 48.379 40.374 47.057 40.723 45.548 40.995 44.022 41.189 42.483 41.304 40.935 41.304 15.214 41.312 14.45 41.414 13.693 41.607 12.957 41.793 12.493 42.038 12.061 42.337 11.667 42.899 11.154 43.522 10.724 44.694 9.99 45.893 9.303"/>
    <polyline fill="#000000" points="10.451 6.726 10.451 9.293 15.542 11.238 15.542 41.228 7.965 38.333 7.237 38.179 6.497 38.131 5.97 38.177 5.462 38.328 4.991 38.577 4.674 38.853 4.405 39.18 4.191 39.548 4.036 39.948 3.894 40.532 3.815 41.13 3.8 41.732 3.892 42.836 4.098 43.923 4.418 44.979 4.846 45.993 3.965 44.519 3.168 42.994 2.458 41.422 1.838 39.809 1.31 38.161 .875 36.482 .535 34.78 .292 33.06 .145 31.328 .096 29.59 .153 27.723 .322 25.864 .603 24.019 .994 22.197 1.495 20.404 2.103 18.648 2.816 16.936 3.631 15.275 4.545 13.671 5.553 12.131 6.652 10.66 7.839 9.266 9.106 7.952 10.451 6.726"/>
    <polyline fill="#4990E2" points="3.864 40.708 4.036 39.948 4.159 39.626 4.314 39.32 4.618 38.914 4.991 38.577 5.346 38.378 5.725 38.236 6.108 38.158 6.497 38.131 6.529 38.131 7.254 38.181 7.965 38.333 15.542 41.228 15.542 11.238 10.451 9.293 10.451 6.726 27.71 13.321 27.71 15.888 28.519 15.73 29.341 15.673 30.162 15.719 30.973 15.866 31.442 16.091 31.855 16.413 32.194 16.82 32.444 17.292 32.594 17.808 32.638 18.346 32.638 46.057 32.637 47.446 32.523 48.831 32.298 50.201 31.963 51.546 31.521 52.856 30.975 54.122 30.328 55.336 29.747 56.193 29.08 56.979 28.336 57.685 27.523 58.3 27.044 58.59 26.528 58.798 25.988 58.922 25.436 58.958 25.17 58.928 24.946 58.879 24.729 58.801 24.532 58.688 24.362 58.533 24.236 58.343 24.158 58.126 24.129 57.864 24.158 57.602 24.307 57.184 24.854 56.155 25.465 55.168 26.065 54.213 26.575 53.202 26.991 52.145 27.31 51.05 27.456 50.177 27.506 49.291 27.46 48.405 27.318 47.53 27.16 46.973 26.919 46.45 26.601 45.975 26.214 45.559 25.769 45.214 25.276 44.948 24.758 44.805 24.223 44.759 23.673 44.798 23.132 44.915 22.612 45.109 22.123 45.375 21.405 45.877 20.749 46.464 20.163 47.129 19.657 47.861 19.236 48.65 18.908 49.486 18.647 50.293 18.483 51.126 18.418 51.975 18.454 52.825 18.59 53.664 18.824 54.479 19.152 55.258 19.632 56.009 20.194 56.695 20.83 57.305 21.531 57.831 22.287 58.266 23.087 58.604 21.401 58.217 19.741 57.723 18.112 57.123 16.522 56.419 14.976 55.615 13.48 54.714 12.039 53.718 10.659 52.631 9.345 51.458 8.103 50.202 6.936 48.87 5.849 47.465 4.846 45.993 4.481 45.149 4.191 44.272 3.979 43.372 3.857 42.556 3.8 41.732 3.813 41.219 3.864 40.708"/>
    <polyline fill="#000000" points="45.915 6.586 45.915 6.742 27.71 13.321 10.451 6.726 11.835 5.615 13.282 4.596 14.786 3.672 16.342 2.848 17.943 2.127 19.584 1.51 21.259 1.001 22.96 .602 24.682 .314 26.417 .137 28.159 .074 29.902 .123 31.638 .286 33.362 .561 35.066 .947 36.744 1.442 38.389 2.046 39.996 2.755 41.558 3.567 43.069 4.478 44.523 5.486 45.915 6.586"/>
  </g>
</svg>
